<svg width="1920" height="1080" viewBox="0 0 1920 1080" fill="none" xmlns="http://www.w3.org/2000/svg">
<path d="M489.91 541.833L473.153 554.274V515.428L473.661 515.174L489.91 541.833ZM509.46 532.439L489.149 500.956L452.587 527.615V576.109L446.748 582.203L449.033 584.742L454.365 579.41L478.993 599.214L506.414 569.762L503.875 567.223L490.418 581.441L472.899 567.731V559.098L509.46 532.439ZM447.256 513.651L444.717 511.112L439.639 516.19L422.628 500.956L405.87 518.729V467.441L405.363 467.188L384.797 489.023V574.332L377.942 581.695V582.457L395.715 598.96L411.456 582.457V581.695L405.87 576.109V523.806L410.948 518.729L420.343 527.361V596.675C420.343 606.323 414.249 614.194 405.109 618.764L406.378 620.795C424.913 616.987 441.416 604.292 441.416 585.757V519.49L447.256 513.651ZM379.465 472.265H377.18C373.879 479.375 369.309 482.421 360.931 482.421C344.427 482.421 333.51 469.473 319.292 469.473C297.457 469.473 286.793 489.53 286.793 507.557C286.793 508.827 286.793 510.35 287.047 511.619H289.84C289.84 501.971 297.964 492.577 311.929 492.577C314.975 492.577 317.514 493.085 320.307 493.847C298.98 506.795 284 522.283 284 546.911C284 579.41 304.566 599.722 331.986 599.722C359.153 599.722 376.926 575.094 378.957 549.45L376.672 548.181C373.372 558.336 369.055 566.207 359.915 571.539V500.956C375.403 496.893 379.211 484.706 379.465 472.265ZM356.361 573.57C351.029 575.855 344.935 577.379 338.334 577.379C330.209 577.379 324.37 575.347 319.292 571.539L343.92 558.083V501.21C346.459 501.717 348.998 501.971 351.79 501.971C353.314 501.971 354.837 501.971 356.361 501.717V573.57ZM343.158 500.956L314.214 517.205L316.245 520.252L322.338 516.951V565.953L316.245 569.254C307.105 561.637 303.55 549.45 303.55 537.517C303.55 515.682 313.198 504.764 323.1 494.608C329.701 496.386 335.795 499.432 343.158 500.956Z" fill="black"/>
<path d="M1194.22 584.483L1177.72 572.042V514.407L1177.97 514.153L1194.22 527.102V584.483ZM1312.03 576.866L1309.74 574.327L1303.4 580.928L1295.78 573.819V519.485L1302.63 512.63L1300.09 509.837L1294.51 515.423L1277.75 500.443L1259.47 519.993V516.185L1241.7 500.443L1221.89 521.516L1224.69 524.055L1230.53 518.216L1238.4 525.325V574.073L1231.54 581.436V581.944L1249.57 598.447L1265.56 581.944V581.182L1259.47 575.596V525.325L1266.07 518.47L1275.21 527.102V583.467L1291.97 598.701L1312.03 576.866ZM1221.39 515.169L1218.85 512.376L1213.26 517.962L1191.17 500.697L1156.9 525.325V577.628L1150.8 583.975L1153.34 586.514L1158.67 581.182L1182.54 599.209L1215.29 575.089V521.263L1221.39 515.169ZM1151.06 577.12L1148.52 574.327L1142.17 580.928L1133.03 573.819V515.169H1141.92L1148.52 505.267L1148.01 504.759H1132.78V470.229L1132.27 469.722L1111.7 491.557V504.505H1106.88L1100.02 514.407L1100.53 514.915H1111.7V581.944L1105.61 588.037L1108.15 590.576L1113.48 585.245L1130.49 598.701L1151.06 577.12ZM1097.23 512.884L1094.69 510.345L1088.85 515.931L1069.05 500.443L1032.23 526.848V580.674L1025.63 587.53L1028.17 590.069L1033.76 584.483L1051.28 598.193L1024.62 629.423L1026.65 630.946C1033 626.376 1040.87 623.837 1047.47 623.837C1053.56 623.837 1057.88 626.884 1064.22 633.739C1083.52 619.267 1096.22 611.142 1096.22 602.256C1096.22 594.639 1090.63 595.146 1090.63 584.991V519.485L1097.23 512.884ZM932.96 483.686L916.965 469.214L902.492 484.701L918.488 499.174L932.96 483.686ZM1027.92 577.12L1025.63 574.581L1019.28 581.182L1011.67 574.073V519.739L1018.52 512.884L1015.98 510.091L1010.4 515.677L993.387 500.697L975.107 520.247V516.438L957.334 500.697L937.53 521.77L940.323 524.309L946.163 518.47L954.033 525.579V574.327L947.178 581.69V582.198L965.205 598.701L980.946 582.198V581.436L975.107 575.85V525.325L981.708 518.47L990.595 527.102V583.721L1007.61 598.955L1027.92 577.12ZM943.878 577.628L941.339 574.835L935.499 580.674L927.374 573.057V517.962L933.976 511.361L931.183 508.568L925.851 513.9L911.125 500.697L891.829 521.516L894.368 524.055L899.446 518.977L906.301 525.325V580.42L899.953 587.022L902.492 589.561L907.824 584.229L923.82 598.955L943.878 577.628ZM892.083 513.646L889.544 511.107L884.466 516.185L867.455 500.951L850.697 518.724V467.183L850.444 466.929L829.878 488.764V574.327L823.023 581.69V582.452L841.049 598.955L856.791 582.452V581.69L850.951 576.358V523.802L856.029 518.724L865.423 527.61V596.67C865.423 606.318 859.33 614.189 850.444 618.759L851.713 620.79C869.994 617.235 886.497 604.541 886.497 586.006V519.485L892.083 513.646ZM821.753 502.982L819.722 501.712C815.406 505.267 809.82 506.029 806.012 506.029C800.934 506.029 797.887 503.998 794.078 500.951L762.088 523.548V559.601H778.591L751.932 597.685L754.724 598.701C759.295 593.623 764.119 591.084 769.704 591.084C776.814 591.084 782.653 594.385 786.715 598.955L817.437 577.374V535.989H799.156L821.753 502.982ZM759.041 577.628L756.248 574.835L750.662 580.674L741.776 572.55V520.247L748.631 513.646L745.838 511.107L740.506 516.438L720.448 500.697L683.633 527.102V577.882L678.048 583.721L680.587 586.26L685.157 581.69L704.707 598.955L720.702 582.452H721.21L739.491 598.955L759.041 577.628ZM671.7 562.14V490.541L650.119 469.214L627.776 492.572L603.91 469.468L581.313 493.334V485.717C581.313 465.659 568.872 468.96 568.872 456.265C568.872 447.886 574.204 444.078 580.551 441.031L578.774 439C559.732 445.855 549.068 456.011 549.068 466.929C549.068 476.831 556.685 477.338 556.685 488.764V518.216C542.467 518.216 540.436 531.418 540.436 536.496C540.436 539.543 540.943 542.336 541.451 543.859H543.482C544.244 540.051 546.529 537.004 551.353 537.004H556.685V574.835L584.614 598.701L605.179 575.596L632.092 598.701L671.7 562.14ZM1069.81 576.866L1064.73 582.706L1053.31 573.819V514.407L1053.81 513.9L1069.81 526.594V576.866ZM1083.52 609.619C1083.52 614.443 1080.73 617.489 1077.17 620.536C1072.1 616.22 1066.51 612.919 1058.89 612.919C1049.75 612.919 1045.18 615.204 1038.83 619.013L1038.58 618.759L1069.81 582.706V585.498C1069.81 593.877 1071.08 597.178 1075.9 600.224C1080.73 603.271 1083.52 605.81 1083.52 609.619ZM809.058 515.169L790.27 542.59H782.907V513.9L783.415 513.646C786.969 517.454 791.793 519.231 795.602 519.231C802.203 519.485 804.742 517.962 809.058 515.169ZM796.364 586.26C792.555 581.69 786.462 579.151 780.622 579.151C774.021 579.151 770.466 581.182 765.896 583.975L765.642 583.467L787.223 553H796.364V586.26ZM720.702 576.866L716.132 581.182L704.453 570.772V514.407L704.961 513.9L720.956 526.594V576.866H720.702ZM647.326 580.674L628.284 564.425V497.396L636.663 489.018L647.58 499.935V580.674H647.326ZM603.656 571.788L597.562 578.389L581.059 564.425V498.158L589.946 489.018L603.402 502.474V571.788H603.656Z" fill="black"/>
<path d="M1571.51 515.17L1552.72 542.591H1545.36V513.901L1545.87 513.647C1549.42 517.455 1554.25 519.233 1558.05 519.233C1564.91 519.486 1567.45 517.963 1571.51 515.17ZM1636 577.121L1633.46 574.328L1627.11 580.929L1617.72 573.82V515.17H1626.86L1633.71 505.268L1633.21 504.76H1617.72V470.484L1617.21 469.977L1596.65 491.812V504.76H1591.82L1584.97 514.662L1585.47 515.17H1596.65V582.199L1590.55 588.292L1593.09 590.831L1598.42 585.5L1615.43 598.956L1636 577.121ZM1584.2 502.983L1582.17 501.714C1577.86 505.268 1572.27 506.03 1568.46 506.03C1563.39 506.03 1560.34 503.999 1556.53 500.952L1524.29 523.549V559.602H1540.79L1514.13 597.687L1516.92 598.702C1521.49 593.624 1526.32 591.085 1532.16 591.085C1539.27 591.085 1545.1 594.386 1549.17 598.956L1579.89 577.375V535.99H1561.86L1584.2 502.983ZM1519.97 515.17L1517.43 512.377L1511.84 517.963L1489.76 500.698L1455.48 525.326V577.629L1449.39 583.976L1451.92 586.515L1457.26 581.183L1481.12 599.21L1513.88 575.09V521.264L1519.97 515.17ZM1443.8 573.313V489.273L1421.97 469.469L1397.84 495.112V476.832H1394.29V498.921L1388.7 505.014V486.226L1370.68 469.469L1349.1 491.558L1351.89 494.097L1357.22 488.765L1364.08 494.858V515.678H1363.06C1352.65 515.678 1346.3 522.787 1346.3 532.435C1346.3 537.259 1347.07 539.798 1347.57 541.322H1349.86C1350.62 537.005 1354.43 533.197 1360.01 533.197H1364.08V570.774C1351.64 575.09 1344.27 586.007 1342.75 600.987L1344.27 602.003C1349.86 595.148 1357.22 590.831 1364.08 589.308V641.357L1364.58 641.611L1386.93 621.045L1397.59 630.947L1397.84 630.693V590.07C1402.67 591.339 1406.73 594.894 1410.03 598.956L1443.8 573.313ZM1559.07 586.261C1555.26 581.691 1549.17 579.152 1543.33 579.152C1536.73 579.152 1532.92 581.183 1528.6 583.976L1528.35 583.468L1549.93 553.001H1559.07V586.261ZM1492.8 584.484L1476.3 572.043V514.408L1476.55 514.155L1492.8 527.103V584.484ZM1419.68 578.898C1413.84 573.059 1407.24 570.012 1398.1 568.996V498.667L1408.25 488.003L1419.68 498.413V578.898ZM1394.29 622.568L1388.7 617.237V508.315L1394.29 502.475V622.568Z" fill="black"/>
</svg>
